<?xml version="1.0" encoding="UTF-8" standalone="no"?>
<!-- Created with Inkscape (http://www.inkscape.org/) -->
<svg
   xmlns:svg="http://www.w3.org/2000/svg"
   xmlns="http://www.w3.org/2000/svg"
   xmlns:xlink="http://www.w3.org/1999/xlink"
   xmlns:inkscape="http://www.inkscape.org/namespaces/inkscape"
   version="1.0"
   width="652.5"
   height="652.5"
   id="svg2">
  <defs
     id="defs4">
    <linearGradient
       id="linearGradient3378">
      <stop
         style="stop-color:#ffffff;stop-opacity:1"
         offset="0"
         id="stop3380" />
      <stop
         style="stop-color:#ffffff;stop-opacity:0"
         offset="1"
         id="stop3382" />
    </linearGradient>
    <linearGradient
       id="linearGradient3252">
      <stop
         style="stop-color:#000000;stop-opacity:1"
         offset="0"
         id="stop3254" />
      <stop
         style="stop-color:#000000;stop-opacity:0"
         offset="1"
         id="stop3256" />
    </linearGradient>
    <linearGradient
       id="linearGradient3176">
      <stop
         style="stop-color:#000000;stop-opacity:0"
         offset="0"
         id="stop3178" />
      <stop
         style="stop-color:#000000;stop-opacity:0"
         offset="1"
         id="stop3180" />
    </linearGradient>
    <linearGradient
       id="linearGradient3168">
      <stop
         style="stop-color:#000000;stop-opacity:1"
         offset="0"
         id="stop3170" />
      <stop
         style="stop-color:#f0f0ff;stop-opacity:0"
         offset="1"
         id="stop3172" />
    </linearGradient>
    <linearGradient
       id="linearGradient3350">
      <stop
         style="stop-color:#ffffff;stop-opacity:1"
         offset="0"
         id="stop3352" />
      <stop
         style="stop-color:#ffffff;stop-opacity:0"
         offset="1"
         id="stop3354" />
    </linearGradient>
    <linearGradient
       id="linearGradient3336">
      <stop
         style="stop-color:#000000;stop-opacity:0.50588238"
         offset="0"
         id="stop3338" />
      <stop
         style="stop-color:#000000;stop-opacity:0"
         offset="1"
         id="stop3340" />
    </linearGradient>
    <linearGradient
       id="linearGradient3181">
      <stop
         style="stop-color:#ffffff;stop-opacity:0.30927834"
         offset="0"
         id="stop3183" />
      <stop
         style="stop-color:#c3ffff;stop-opacity:0"
         offset="1"
         id="stop3185" />
    </linearGradient>
    <linearGradient
       id="linearGradient3173">
      <stop
         style="stop-color:#ffffff;stop-opacity:1"
         offset="0"
         id="stop3175" />
      <stop
         style="stop-color:#ffffff;stop-opacity:0"
         offset="1"
         id="stop3177" />
    </linearGradient>
    <filter
       id="filter3225">
      <feGaussianBlur
         id="feGaussianBlur3227"
         stdDeviation="6.4125"
         inkscape:collect="always" />
    </filter>
    <radialGradient
       cx="163.41444"
       cy="159.53757"
       r="120.18595"
       fx="163.41444"
       fy="159.53757"
       id="radialGradient3306"
       xlink:href="#linearGradient3181"
       gradientUnits="userSpaceOnUse"
       gradientTransform="matrix(1.4976792,0,0,1.4976792,-121.21193,-108.36843)" />
    <radialGradient
       cx="200.03055"
       cy="-138.31308"
       r="120.18595"
       fx="200.03055"
       fy="-138.31308"
       id="radialGradient3320"
       xlink:href="#linearGradient3181"
       gradientUnits="userSpaceOnUse"
       gradientTransform="matrix(1.1232594,0,0,-1.1232594,288.84505,353.75475)" />
    <linearGradient
       x1="-20.318926"
       y1="159.43594"
       x2="93.861534"
       y2="273.03085"
       id="linearGradient3342"
       xlink:href="#linearGradient3350"
       gradientUnits="userSpaceOnUse" />
    <linearGradient
       x1="156.11537"
       y1="334.96542"
       x2="93.861534"
       y2="273.03085"
       id="linearGradient3348"
       xlink:href="#linearGradient3336"
       gradientUnits="userSpaceOnUse" />
    <radialGradient
       cx="229.18388"
       cy="567.1178"
       r="107.40496"
       fx="229.18388"
       fy="567.1178"
       id="radialGradient3182"
       xlink:href="#linearGradient3176"
       gradientUnits="userSpaceOnUse" />
    <linearGradient
       x1="263.7475"
       y1="260.12823"
       x2="331.05746"
       y2="330.77985"
       id="linearGradient3258"
       xlink:href="#linearGradient3252"
       gradientUnits="userSpaceOnUse" />
    <linearGradient
       x1="391.80557"
       y1="394.54382"
       x2="331.05746"
       y2="330.77985"
       id="linearGradient3384"
       xlink:href="#linearGradient3378"
       gradientUnits="userSpaceOnUse" />
  </defs>
  <g
     style="display:inline"
     id="layer2" />
  <g
     style="display:inline"
     id="layer1">
    <path
       d="M 326.25,16.875 C 155.475,16.875 16.875,155.47499 16.875,326.25 C 16.874999,497.025 155.475,635.625 326.25,635.625 C 497.025,635.625 635.62501,497.025 635.625,326.25 C 635.625,155.475 497.02501,16.875 326.25,16.875 z M 326.25,254.25 C 365.994,254.25 398.25,286.506 398.25,326.25 C 398.25,365.994 365.994,398.25 326.25,398.25 C 286.506,398.25 254.25,365.994 254.25,326.25 C 254.25,286.506 286.506,254.25 326.25,254.25 z "
       style="fill:#000000;fill-opacity:1;fill-rule:nonzero;stroke:none;stroke-width:2;stroke-linecap:round;stroke-miterlimit:4;stroke-dasharray:none;stroke-opacity:1"
       id="path2178" />
    <path
       d="M 513.53125,378.6875 C 508.35664,378.6875 503.24241,378.96355 498.21875,379.53125 C 480.69101,436.09933 435.99157,480.7616 379.40625,498.25 C 378.82904,503.31474 378.53125,508.46911 378.53125,513.6875 C 378.53125,588.2075 439.01125,648.68751 513.53125,648.6875 C 588.05125,648.6875 648.53124,588.20751 648.53125,513.6875 C 648.53125,439.1675 588.05125,378.68751 513.53125,378.6875 z "
       style="opacity:0.5;fill:url(#radialGradient3320);fill-opacity:1;fill-rule:nonzero;stroke:none;stroke-width:2;stroke-linecap:round;stroke-miterlimit:4;stroke-dasharray:none;stroke-opacity:0.1254902"
       id="path3189" />
    <path
       d="M 268.34375,22.3125 C 144.08426,45.873946 46.061792,143.81599 22.375,268.03125 C 48.772319,313.72664 94.664168,346.77224 148.65625,355.75 C 147.07125,346.14989 146.25,336.29694 146.25,326.25 C 146.24999,226.89 226.89,146.25 326.25,146.25 C 336.36251,146.25 346.27809,147.08217 355.9375,148.6875 C 347.01503,94.675736 314.01142,48.754748 268.34375,22.3125 z M 326.25,249.09375 C 283.66714,249.09375 249.09373,283.66714 249.09375,326.25 C 249.09375,331.98239 249.74966,337.56063 250.9375,342.9375 C 253.97362,341.59681 256.96097,340.1571 259.90625,338.65625 C 259.15739,334.63252 258.75,330.48972 258.75,326.25 C 258.74999,288.99 288.99,258.75 326.25,258.75 C 330.51292,258.75 334.67439,259.18061 338.71875,259.9375 C 340.22185,256.99555 341.65666,254.00144 343,250.96875 C 337.60283,249.77142 332.00587,249.09375 326.25,249.09375 z "
       style="fill:url(#radialGradient3306);fill-opacity:1;fill-rule:nonzero;stroke:none;stroke-width:2;stroke-linecap:round;stroke-miterlimit:4;stroke-dasharray:none;stroke-opacity:0.1254902"
       id="path3171" />
    <path
       d="M 326.25,16.875 C 155.475,16.875 16.875,155.47499 16.875,326.25 C 16.874999,497.025 155.475,635.625 326.25,635.625 C 497.025,635.625 635.62501,497.025 635.625,326.25 C 635.625,155.475 497.02501,16.875 326.25,16.875 z M 326.25,27 C 491.43601,27 625.5,161.064 625.5,326.25 C 625.50001,491.436 491.436,625.5 326.25,625.5 C 161.064,625.5 27,491.436 27,326.25 C 27,161.06399 161.064,27 326.25,27 z "
       style="fill:#000000;fill-opacity:1;fill-rule:nonzero;stroke:none;stroke-width:2;stroke-linecap:round;stroke-miterlimit:4;stroke-dasharray:none;stroke-opacity:1"
       id="path3325" />
    <path
       d="M 88.844208,264.1073 C 35.568914,317.77578 -53.772893,317.90163 -107.3943,264.6725 C -161.37494,211.08676 -161.50134,121.22478 -107.96196,67.29142 C -54.064424,12.997262 36.320012,12.870318 90.566679,66.721287 C 145.17572,120.93198 145.30321,211.84114 91.139285,266.40249 C 36.614066,321.32777 -54.822099,321.45581 -109.69948,266.97757 C -164.94239,212.13647 -165.07098,120.17101 -110.27706,64.976214 C -55.11869,9.4143148 37.378356,9.2851654 92.891936,64.396144 C 148.77421,119.87314 148.90391,212.90408 93.474508,268.73782 C 37.677498,324.94185 -55.889634,325.07212 -112.04493,269.3229 C -168.5721,213.2045 -168.70292,119.09886 -112.63253,62.620628 C -56.191341,5.7689154 38.455134,5.637535 95.25769,62.030507 C 152.43533,118.79586 152.56728,213.9855 95.850342,271.11377 C 38.759421,328.61875 -56.975709,328.75126 -114.43111,271.70896 C -172.26482,214.29108 -172.39789,118.00811 -115.02884,60.224194 C -57.282591,2.0603418 39.55056,1.926705 97.664409,59.623907 C 156.15981,117.69993 156.29402,215.08562 98.267256,273.53081 C 39.86005,332.35918 -58.080538,332.49396 -116.85848,274.13622 C -176.02125,215.39642 -176.15659,116.89856 -117.46647,57.786444 C -58.392652,-1.7121316 40.664846,-1.8480505 100.11256,57.175874 C 159.94838,116.58513 160.08487,216.20465 100.72572,275.98939 C 40.979598,336.16388 -59.204335,336.30095 -119.32753,276.60515 C -179.84212,216.52073 -179.97977,115.76999 -119.94589,55.306905 C -59.521741,-5.5492348 41.798208,-5.6874613 102.60262,54.685937 C 163.80175,115.45125 163.94056,217.34282 103.22621,278.49 C 42.118282,340.03357 -60.347317,340.17296 -121.83872,279.11622 C -183.72818,217.66423 -183.86815,114.62218 -122.46757,52.785102 C -60.670073,-9.4517017 42.950863,-9.5922616 105.13507,52.153618 C 167.72068,114.29808 167.86182,218.50033 105.7692,281.03312 C 43.276317,343.969 -61.5097,344.11073 -124.39254,281.6699 C -187.68015,218.82714 -187.82248,113.45491 -125.03198,50.220558 C -61.837866,-13.42027 44.123029,-13.56319 107.71037,49.578441 C 171.70589,113.12538 171.8494,219.67741 108.35516,283.61921 C 44.453921,347.9709 -62.691703,348.115 -126.98945,284.26669 C -191.69879,220.00967 -191.84349,112.26797 -127.63962,47.612792 C -63.025337,-17.455683 45.314924,-17.600988 110.32902,46.959924 C 175.75813,111.93296 175.90403,220.87427 110.98459,286.24877 C 45.651315,352.04001 -63.893545,352.18652 -129.62995,286.90706 C -195.78482,221.21205 -195.93193,111.06113 -130.29096,44.961322 C -64.232708,-21.558686 46.526768,-21.706403 112.99149,44.297583 C 179.87814,110.72058 180.02647,222.09114 113.65796,288.92228 C 46.868719,356.17709 -65.115447,356.32602 -132.31452,289.59149 C -199.93901,222.43449 -200.08855,109.83418 -132.98649,42.265661 C -65.4602,-25.73003 47.758783,-25.880185 115.69827,41.590932 C 184.06669,109.48802 184.21746,223.32823 116.37577,291.64021 C 48.106353,360.38289 -66.357631,360.53427 -135.04364,292.32048 C -204.1621,223.67721 -204.31411,108.58689 -135.72669,39.525323 C -66.708034,-29.97047 49.011192,-30.12309 118.44986,38.839483 C 188.32452,108.23507 188.47776,224.58577 119.13849,294.40307 C 49.364442,364.65816 -67.62032,364.81202 -137.81781,295.09451 C -208.45486,224.94045 -208.60935,107.31904 -138.51206,36.739815 C -67.976433,-34.280765 50.284218,-34.435875 121.24673,36.042744 C 192.6524,106.96149 192.80814,225.86399 121.94663,297.21135 C 50.643209,369.00367 -68.903739,369.16003 -140.63752,297.91408 C -212.81805,226.22442 -212.97505,106.0304 -141.34309,33.908644 C -69.265624,-38.661677 51.578086,-38.819305 124.0894,33.20022 C 197.05109,105.66707 197.20935,227.1631 124.80068,300.06554 C 51.94288,373.42017 -70.208114,373.57907 -143.50326,300.77969 C -217.25243,227.52935 -217.41196,104.72076 -144.22028,31.031314 C -70.575831,-43.113973 52.893023,-43.274147 126.97835,30.311415 C 201.52135,104.35157 201.68216,228.48334 127.70113,302.96614 C 53.263681,377.90845 -71.53367,378.06991 -146.41554,303.69182 C -221.75877,228.85547 -221.92087,103.38987 -147.14413,28.107326 C -71.907282,-47.638426 54.229256,-47.801171 129.91408,27.375829 C 206.06396,103.01477 206.22735,229.82493 130.64849,305.91364 C 54.60584,382.46927 -72.880637,382.63332 -149.37485,306.65098 C -226.33785,230.20301 -226.50254,102.03751 -150.11513,25.136178 C -73.260206,-52.23581 55.587014,-52.401155 132.89709,24.392959 C 210.6797,101.65644 210.8457,231.18811 133.64326,308.90856 C 55.969585,387.10342 -74.249243,387.27007 -152.3817,309.65769 C -230.99044,231.57219 -231.15775,100.66346 -153.13379,22.117365 C -74.634832,-56.906905 56.966527,-57.074876 135.9279,21.362301 C 215.36934,100.27636 215.53798,232.57309 136.68595,311.95139 C 57.355148,391.81166 -75.63972,391.98095 -155.43659,312.71243 C -235.71733,232.96324 -235.88729,99.267481 -156.20062,19.050381 C -76.03139,-61.652494 58.368025,-61.823119 139.00701,18.283346 C 220.13368,98.87428 220.30497,233.98013 139.77706,315.04265 C 58.76276,396.59479 -77.052298,396.76675 -158.54004,315.81572 C -240.51931,234.3764 -240.69194,97.84934 -159.31613,15.934716 C -77.450113,-66.473366 59.791742,-66.646673 142.13492,15.155585 C 224.9735,97.449979 225.14748,235.40943 142.9171,318.18285 C 60.192653,401.4536 -78.487211,401.62826 -161.69255,318.96808 C -245.39716,235.8119 -245.5725,96.408807 -162.48084,12.769857 C -78.891234,-71.370312 61.23791,-71.546329 145.31216,11.978504 C 229.88959,96.003222 230.06628,236.86125 146.10659,321.3725 C 61.645061,406.38888 -79.944693,406.56626 -164.89464,322.17001 C -250.35169,237.26997 -250.52976,94.945646 -165.69525,9.55529 C -80.354988,-76.344129 62.706765,-76.522883 148.53924,8.7515876 C 234.88275,94.533773 235.06219,238.33581 149.34605,324.61212 C 63.12022,411.40143 -81.42498,411.58157 -168.14683,325.42204 C -255.38368,238.75086 -255.56451,93.459621 -168.95988,6.290496 C -81.841611,-81.395617 64.198543,-81.577136 151.81667,5.4743174 C 239.95378,93.041396 240.13599,239.83336 152.63599,327.90222 C 64.618365,416.49206 -82.928308,416.67497 -171.44964,328.72468 C -260.49395,240.25478 -260.67756,91.950496 -172.27526,2.9749551 C -83.351338,-86.52558 65.71348,-86.709893 155.14498,2.1461722 C 245.10348,91.525855 245.2885,241.35412 155.97693,331.24333 C 66.139735,421.66156 -84.454915,421.84728 -174.80358,332.07846 C -265.6833,241.782 -265.86973,90.418032 -175.6419,-0.3918559 C -84.88441,-91.734827 67.251816,-91.921962 158.52469,-1.2333717 C 250.33268,89.986911 250.52052,242.89835 159.36941,334.63597 C 67.684568,426.91076 -86.005039,427.09931 -178.20919,335.4839 C -270.95254,243.33273 -271.14181,88.86199 -179.06034,-3.8104629 C -86.441064,-97.02417 68.81379,-97.214155 161.95633,-4.664841 C 255.64217,88.424323 255.83288,244.46627 162.81394,338.08068 C 69.253103,432.24045 -87.578923,432.43188 -181.66699,338.94153 C -276.3025,244.90723 -276.49464,87.28213 -182.5311,-7.2813944 C -88.021542,-102.39443 70.399643,-102.58729 165.44042,-8.1487647 C 261.03279,86.837852 261.22638,246.05813 166.31106,341.57797 C 70.845583,437.65148 -89.176806,437.84579 -185.17751,342.45188 C -281.73398,246.50574 -281.92902,85.678209 -186.05471,-10.805182 C -89.626085,-107.84642 72.009617,-108.04219 168.97751,-11.685675 C 266.50411,85.226033 266.70208,247.67043 169.86451,345.12516"
       transform="matrix(1.2033794,0,0,1.2094265,335.55818,126.66704)"
       style="fill:none;fill-rule:evenodd;stroke:#f0f0ff;stroke-width:1px;stroke-linecap:butt;stroke-linejoin:miter;stroke-opacity:0.03921569"
       id="path3332" />
    <path
       d="M 326.25,168.75 C 239.31,168.75 168.74999,239.31 168.75,326.25 C 168.75,413.19 239.31,483.75001 326.25,483.75 C 413.19,483.75 483.75001,413.19 483.75,326.25 C 483.75,239.31 413.19,168.74999 326.25,168.75 z M 326.25,258.75 C 363.51,258.74999 393.75,288.99 393.75,326.25 C 393.75,363.51 363.51,393.75 326.25,393.75 C 288.99,393.75 258.75,363.51 258.75,326.25 C 258.74999,288.99 288.99,258.75 326.25,258.75 z "
       style="fill:#ff8a3c;fill-opacity:1;fill-rule:nonzero;stroke:none;stroke-width:2;stroke-linecap:round;stroke-miterlimit:4;stroke-dasharray:none;stroke-opacity:0.1254902"
       id="path3193" />
    <path
       d="M 88.844208,264.1073 C 35.568914,317.77578 -53.772893,317.90163 -107.3943,264.6725 C -161.37494,211.08676 -161.50134,121.22478 -107.96196,67.29142 C -54.064424,12.997262 36.320012,12.870318 90.566679,66.721287 C 145.17572,120.93198 145.30321,211.84114 91.139285,266.40249 C 36.614066,321.32777 -54.822099,321.45581 -109.69948,266.97757 C -164.94239,212.13647 -165.07098,120.17101 -110.27706,64.976214 C -55.11869,9.4143148 37.378356,9.2851654 92.891936,64.396144 C 148.77421,119.87314 148.90391,212.90408 93.474508,268.73782 C 37.677498,324.94185 -55.889634,325.07212 -112.04493,269.3229 C -168.5721,213.2045 -168.70292,119.09886 -112.63253,62.620628 C -56.191341,5.7689154 38.455134,5.637535 95.25769,62.030507 C 152.43533,118.79586 152.56728,213.9855 95.850342,271.11377 C 38.759421,328.61875 -56.975709,328.75126 -114.43111,271.70896 C -172.26482,214.29108 -172.39789,118.00811 -115.02884,60.224194 C -57.282591,2.0603418 39.55056,1.926705 97.664409,59.623907 C 156.15981,117.69993 156.29402,215.08562 98.267256,273.53081 C 39.86005,332.35918 -58.080538,332.49396 -116.85848,274.13622 C -176.02125,215.39642 -176.15659,116.89856 -117.46647,57.786444 C -58.392652,-1.7121316 40.664846,-1.8480505 100.11256,57.175874 C 159.94838,116.58513 160.08487,216.20465 100.72572,275.98939 C 40.979598,336.16388 -59.204335,336.30095 -119.32753,276.60515 C -179.84212,216.52073 -179.97977,115.76999 -119.94589,55.306905 C -59.521741,-5.5492348 41.798208,-5.6874613 102.60262,54.685937 C 163.80175,115.45125 163.94056,217.34282 103.22621,278.49 C 42.118282,340.03357 -60.347317,340.17296 -121.83872,279.11622 C -183.72818,217.66423 -183.86815,114.62218 -122.46757,52.785102 C -60.670073,-9.4517017 42.950863,-9.5922616 105.13507,52.153618 C 167.72068,114.29808 167.86182,218.50033 105.7692,281.03312 C 43.276317,343.969 -61.5097,344.11073 -124.39254,281.6699 C -187.68015,218.82714 -187.82248,113.45491 -125.03198,50.220558 C -61.837866,-13.42027 44.123029,-13.56319 107.71037,49.578441 C 171.70589,113.12538 171.8494,219.67741 108.35516,283.61921 C 44.453921,347.9709 -62.691703,348.115 -126.98945,284.26669 C -191.69879,220.00967 -191.84349,112.26797 -127.63962,47.612792 C -63.025337,-17.455683 45.314924,-17.600988 110.32902,46.959924 C 175.75813,111.93296 175.90403,220.87427 110.98459,286.24877 C 45.651315,352.04001 -63.893545,352.18652 -129.62995,286.90706 C -195.78482,221.21205 -195.93193,111.06113 -130.29096,44.961322 C -64.232708,-21.558686 46.526768,-21.706403 112.99149,44.297583 C 179.87814,110.72058 180.02647,222.09114 113.65796,288.92228 C 46.868719,356.17709 -65.115447,356.32602 -132.31452,289.59149 C -199.93901,222.43449 -200.08855,109.83418 -132.98649,42.265661 C -65.4602,-25.73003 47.758783,-25.880185 115.69827,41.590932 C 184.06669,109.48802 184.21746,223.32823 116.37577,291.64021 C 48.106353,360.38289 -66.357631,360.53427 -135.04364,292.32048 C -204.1621,223.67721 -204.31411,108.58689 -135.72669,39.525323 C -66.708034,-29.97047 49.011192,-30.12309 118.44986,38.839483 C 188.32452,108.23507 188.47776,224.58577 119.13849,294.40307 C 49.364442,364.65816 -67.62032,364.81202 -137.81781,295.09451 C -208.45486,224.94045 -208.60935,107.31904 -138.51206,36.739815 C -67.976433,-34.280765 50.284218,-34.435875 121.24673,36.042744 C 192.6524,106.96149 192.80814,225.86399 121.94663,297.21135 C 50.643209,369.00367 -68.903739,369.16003 -140.63752,297.91408 C -212.81805,226.22442 -212.97505,106.0304 -141.34309,33.908644 C -69.265624,-38.661677 51.578086,-38.819305 124.0894,33.20022 C 197.05109,105.66707 197.20935,227.1631 124.80068,300.06554 C 51.94288,373.42017 -70.208114,373.57907 -143.50326,300.77969 C -217.25243,227.52935 -217.41196,104.72076 -144.22028,31.031314 C -70.575831,-43.113973 52.893023,-43.274147 126.97835,30.311415 C 201.52135,104.35157 201.68216,228.48334 127.70113,302.96614 C 53.263681,377.90845 -71.53367,378.06991 -146.41554,303.69182 C -221.75877,228.85547 -221.92087,103.38987 -147.14413,28.107326 C -71.907282,-47.638426 54.229256,-47.801171 129.91408,27.375829 C 206.06396,103.01477 206.22735,229.82493 130.64849,305.91364 C 54.60584,382.46927 -72.880637,382.63332 -149.37485,306.65098 C -226.33785,230.20301 -226.50254,102.03751 -150.11513,25.136178 C -73.260206,-52.23581 55.587014,-52.401155 132.89709,24.392959 C 210.6797,101.65644 210.8457,231.18811 133.64326,308.90856 C 55.969585,387.10342 -74.249243,387.27007 -152.3817,309.65769 C -230.99044,231.57219 -231.15775,100.66346 -153.13379,22.117365 C -74.634832,-56.906905 56.966527,-57.074876 135.9279,21.362301 C 215.36934,100.27636 215.53798,232.57309 136.68595,311.95139 C 57.355148,391.81166 -75.63972,391.98095 -155.43659,312.71243 C -235.71733,232.96324 -235.88729,99.267481 -156.20062,19.050381 C -76.03139,-61.652494 58.368025,-61.823119 139.00701,18.283346 C 220.13368,98.87428 220.30497,233.98013 139.77706,315.04265 C 58.76276,396.59479 -77.052298,396.76675 -158.54004,315.81572 C -240.51931,234.3764 -240.69194,97.84934 -159.31613,15.934716 C -77.450113,-66.473366 59.791742,-66.646673 142.13492,15.155585 C 224.9735,97.449979 225.14748,235.40943 142.9171,318.18285 C 60.192653,401.4536 -78.487211,401.62826 -161.69255,318.96808 C -245.39716,235.8119 -245.5725,96.408807 -162.48084,12.769857 C -78.891234,-71.370312 61.23791,-71.546329 145.31216,11.978504 C 229.88959,96.003222 230.06628,236.86125 146.10659,321.3725 C 61.645061,406.38888 -79.944693,406.56626 -164.89464,322.17001 C -250.35169,237.26997 -250.52976,94.945646 -165.69525,9.55529 C -80.354988,-76.344129 62.706765,-76.522883 148.53924,8.7515876 C 234.88275,94.533773 235.06219,238.33581 149.34605,324.61212 C 63.12022,411.40143 -81.42498,411.58157 -168.14683,325.42204 C -255.38368,238.75086 -255.56451,93.459621 -168.95988,6.290496 C -81.841611,-81.395617 64.198543,-81.577136 151.81667,5.4743174 C 239.95378,93.041396 240.13599,239.83336 152.63599,327.90222 C 64.618365,416.49206 -82.928308,416.67497 -171.44964,328.72468 C -260.49395,240.25478 -260.67756,91.950496 -172.27526,2.9749551 C -83.351338,-86.52558 65.71348,-86.709893 155.14498,2.1461722 C 245.10348,91.525855 245.2885,241.35412 155.97693,331.24333 C 66.139735,421.66156 -84.454915,421.84728 -174.80358,332.07846 C -265.6833,241.782 -265.86973,90.418032 -175.6419,-0.3918559 C -84.88441,-91.734827 67.251816,-91.921962 158.52469,-1.2333717 C 250.33268,89.986911 250.52052,242.89835 159.36941,334.63597 C 67.684568,426.91076 -86.005039,427.09931 -178.20919,335.4839 C -270.95254,243.33273 -271.14181,88.86199 -179.06034,-3.8104629 C -86.441064,-97.02417 68.81379,-97.214155 161.95633,-4.664841 C 255.64217,88.424323 255.83288,244.46627 162.81394,338.08068 C 69.253103,432.24045 -87.578923,432.43188 -181.66699,338.94153 C -276.3025,244.90723 -276.49464,87.28213 -182.5311,-7.2813944 C -88.021542,-102.39443 70.399643,-102.58729 165.44042,-8.1487647 C 261.03279,86.837852 261.22638,246.05813 166.31106,341.57797 C 70.845583,437.65148 -89.176806,437.84579 -185.17751,342.45188 C -281.73398,246.50574 -281.92902,85.678209 -186.05471,-10.805182 C -89.626085,-107.84642 72.009617,-108.04219 168.97751,-11.685675 C 266.50411,85.226033 266.70208,247.67043 169.86451,345.12516"
       transform="matrix(1.2033794,0,0,1.2094265,333.55819,126.66705)"
       style="fill:none;fill-rule:evenodd;stroke:#000000;stroke-width:1px;stroke-linecap:butt;stroke-linejoin:miter;stroke-opacity:0.49726778"
       id="path3374" />
    <path
       d="M 155.48554 247.15909 A 87.629135 87.179749 0 1 1  -19.772728,247.15909 A 87.629135 87.179749 0 1 1  155.48554 247.15909 z"
       transform="matrix(1.7862138,0,0,1.7954213,205.04395,-117.50469)"
       style="opacity:1;fill:none;fill-opacity:0.50273222;fill-rule:nonzero;stroke:url(#linearGradient3342);stroke-width:1.25641358;stroke-linecap:round;stroke-miterlimit:4;stroke-dasharray:none;stroke-opacity:0.25098039"
       id="path3334" />
    <path
       d="M 155.48554 247.15909 A 87.629135 87.179749 0 1 1  -19.772728,247.15909 A 87.629135 87.179749 0 1 1  155.48554 247.15909 z"
       transform="matrix(1.7862138,0,0,1.7954213,205.04395,-117.50469)"
       style="opacity:1;fill:none;fill-opacity:0.50273222;fill-rule:nonzero;stroke:url(#linearGradient3348);stroke-width:2.51282716;stroke-linecap:round;stroke-miterlimit:4;stroke-dasharray:none;stroke-opacity:0.25098039"
       id="path3346" />
    <path
       d="M 390.96075 327.14877 A 63.362602 66.508263 0 1 1  264.23554,327.14877 A 63.362602 66.508263 0 1 1  390.96075 327.14877 z"
       transform="matrix(1.0746419,0,0,1.0238142,-25.800692,-8.6895595)"
       style="fill:none;fill-opacity:1;stroke:url(#linearGradient3258);stroke-width:1.73110342;stroke-miterlimit:4;stroke-dasharray:none;stroke-opacity:0.25098039"
       id="path2280" />
    <path
       d="M 390.96075 327.14877 A 63.362602 66.508263 0 1 1  264.23554,327.14877 A 63.362602 66.508263 0 1 1  390.96075 327.14877 z"
       transform="matrix(1.0746419,0,0,1.0238142,-25.800692,-8.6895595)"
       style="fill:none;fill-opacity:1;stroke:url(#linearGradient3384);stroke-width:1.73110342;stroke-miterlimit:4;stroke-dasharray:none;stroke-opacity:0.25098039"
       id="path3376" />
  </g>
  <g
     style="display:inline"
     id="layer3">
    <path
       d="M 155.48554 247.15909 A 87.629135 87.179749 0 1 1  -19.772728,247.15909 A 87.629135 87.179749 0 1 1  155.48554 247.15909 z"
       transform="matrix(1.6841445,0,0,1.6928258,211.97001,-92.147281)"
       style="opacity:1;fill:none;fill-opacity:0.50273222;fill-rule:nonzero;stroke:#ffffff;stroke-width:1.0895896;stroke-linecap:round;stroke-miterlimit:4;stroke-dasharray:none;stroke-opacity:0.37647059"
       id="path3273" />
  </g>
</svg>
